<svg width="37" height="37" viewBox="0 0 37 37" fill="none" xmlns="http://www.w3.org/2000/svg">
<g clip-path="url(#clip0_1_19)">
<path d="M31.4957 14.0671H15.0202C14.7335 14.0671 14.501 14.2996 14.501 14.5863C14.501 14.8731 14.7335 15.1055 15.0202 15.1055H31.4957C31.7824 15.1055 32.0149 14.8731 32.0149 14.5863C32.0149 14.2996 31.7824 14.0671 31.4957 14.0671Z" fill="white"/>
<path d="M31.4957 18.0361H15.0202C14.7335 18.0361 14.501 18.2686 14.501 18.5553C14.501 18.842 14.7335 19.0745 15.0202 19.0745H31.4957C31.7824 19.0745 32.0149 18.842 32.0149 18.5553C32.0149 18.2686 31.7824 18.0361 31.4957 18.0361Z" fill="white"/>
<path d="M31.4957 22.0049H15.0202C14.7335 22.0049 14.501 22.2373 14.501 22.5241C14.501 22.8108 14.7335 23.0433 15.0202 23.0433H31.4957C31.7824 23.0433 32.0149 22.8108 32.0149 22.5241C32.0149 22.2373 31.7824 22.0049 31.4957 22.0049Z" fill="white"/>
<path d="M33.1447 9.52661H13.371C11.7059 9.52661 10.3513 10.8812 10.3513 12.5463V24.9803C10.3513 26.6453 11.7058 28 13.371 28H27.2305C27.3787 28 27.5164 28.0666 27.6083 28.183L32.0841 33.8493C32.2604 34.0726 32.5178 34.1943 32.7873 34.1943C32.8875 34.1943 32.9894 34.1774 33.0893 34.1427C33.4581 34.0146 33.6964 33.6797 33.6964 33.2893V27.9484C35.0964 27.6869 36.1644 26.4491 36.1644 24.9803V12.5463C36.1644 10.8812 34.8099 9.52661 33.1447 9.52661ZM35.1261 24.9803C35.1261 26.0586 34.2488 26.9471 33.1705 26.9608C32.8864 26.9644 32.6579 27.1958 32.6579 27.48V32.9006L28.4232 27.5394C28.1332 27.1721 27.6985 26.9615 27.2305 26.9615H13.371C12.2785 26.9615 11.3896 26.0727 11.3896 24.9802V12.5463C11.3896 11.4538 12.2784 10.5649 13.371 10.5649H33.1447C34.2372 10.5649 35.1261 11.4538 35.1261 12.5463V24.9803Z" fill="white"/>
<path d="M8.37035 18.1113C8.01523 18.1617 7.69721 18.3446 7.47486 18.626L3.90833 23.1413V18.616C3.90833 18.3318 3.67989 18.1005 3.39579 18.0968C2.49373 18.0853 1.75981 17.3421 1.75981 16.4399V5.61588C1.75981 4.7019 2.50342 3.95829 3.41739 3.95829H20.631C21.545 3.95829 22.2886 4.7019 22.2886 5.61588V7.61868C22.2886 7.90541 22.5211 8.13787 22.8078 8.13787C23.0945 8.13787 23.327 7.90541 23.327 7.61868V5.61588C23.327 4.12935 22.1175 2.91992 20.631 2.91992H3.41739C1.93086 2.91992 0.721436 4.12935 0.721436 5.61588V16.4399C0.721436 17.7321 1.64704 18.8239 2.87003 19.079V23.6732C2.87003 24.042 3.09515 24.3586 3.44363 24.4796C3.53812 24.5124 3.63434 24.5283 3.72904 24.5283C3.98358 24.5283 4.2269 24.4133 4.39353 24.2024L8.28977 19.2697C8.34598 19.1985 8.42649 19.1522 8.51634 19.1394C8.80023 19.0991 8.99773 18.8363 8.95737 18.5524C8.91708 18.2685 8.65465 18.0708 8.37035 18.1113Z" fill="white"/>
</g>
<defs>
<clipPath id="clip0_1_19">
<rect width="35.443" height="35.443" fill="white" transform="translate(0.721436 0.835449)"/>
</clipPath>
</defs>
</svg>
