<?xml version="1.0" standalone="no"?>
<!DOCTYPE svg PUBLIC "-//W3C//DTD SVG 20010904//EN"
 "http://www.w3.org/TR/2001/REC-SVG-20010904/DTD/svg10.dtd">
<svg version="1.0" xmlns="http://www.w3.org/2000/svg"
 width="200.000000pt" height="200.000000pt" viewBox="0 0 200.000000 200.000000"
 preserveAspectRatio="xMidYMid meet">
<metadata>
Created by potrace 1.14, written by Peter Selinger 2001-2017
</metadata>
<g transform="translate(0.000000,200.000000) scale(0.100000,-0.100000)"
fill="#000000" stroke="none">
<path d="M689 1962 c-1 -4 -1 -9 -1 -12 0 -3 -8 -6 -18 -6 -10 0 -16 4 -14 8
3 4 0 8 -5 8 -6 0 -11 -4 -11 -9 0 -5 -8 -8 -17 -7 -11 0 -17 -5 -15 -14 3
-12 1 -12 -9 -3 -9 9 -15 9 -25 -2 -8 -7 -25 -12 -39 -11 -13 2 -22 -1 -19 -5
3 -5 0 -9 -6 -9 -6 0 -8 -5 -4 -12 5 -8 0 -7 -11 2 -10 8 -16 10 -12 3 4 -6 3
-14 -3 -18 -5 -3 -10 -1 -10 5 0 6 -5 8 -10 5 -6 -4 -7 -11 -4 -17 5 -7 0 -9
-14 -6 -13 4 -20 2 -16 -4 3 -5 -3 -12 -15 -15 -12 -3 -21 -12 -21 -21 0 -12
-3 -13 -12 -4 -15 15 -28 15 -28 1 0 -5 4 -7 10 -4 5 3 7 0 4 -9 -3 -8 -12
-12 -20 -9 -8 3 -14 -1 -14 -10 0 -8 -8 -21 -17 -28 -16 -13 -17 -12 -5 3 10
12 10 18 1 24 -8 4 -9 3 -5 -5 4 -6 1 -14 -8 -17 -9 -3 -12 -12 -9 -22 5 -11
2 -14 -10 -9 -15 6 -22 -3 -14 -19 4 -9 -33 -25 -43 -19 -6 4 -10 3 -9 -2 4
-22 -2 -34 -14 -27 -7 5 -6 0 3 -11 14 -17 13 -18 -2 -12 -12 4 -19 -2 -27
-24 -5 -16 -13 -29 -16 -29 -3 0 -3 5 1 12 5 7 3 8 -5 4 -7 -5 -10 -14 -7 -22
7 -17 -22 -46 -37 -37 -7 4 -6 -1 2 -10 8 -11 9 -17 3 -17 -7 0 -9 -7 -5 -17
4 -11 3 -14 -5 -9 -7 4 -13 2 -13 -3 -1 -6 -2 -17 -3 -23 -1 -7 -7 -12 -13
-11 -13 3 -12 -15 1 -36 6 -10 5 -12 -2 -7 -7 4 -12 3 -12 -3 0 -5 -7 -17 -16
-25 -8 -9 -11 -16 -5 -16 6 0 11 -4 11 -10 0 -5 -7 -10 -15 -10 -8 0 -15 -5
-15 -11 0 -5 5 -7 10 -4 6 3 10 1 10 -4 0 -6 -5 -11 -11 -11 -5 0 -7 -4 -4
-10 3 -5 0 -10 -7 -10 -9 0 -9 -3 2 -10 13 -8 13 -11 1 -22 -12 -11 -13 -10
-6 2 5 9 4 12 -1 7 -13 -12 -13 -107 0 -107 7 0 7 -3 1 -8 -14 -10 -14 -105
-1 -114 7 -5 7 -8 1 -8 -16 0 -12 -119 4 -129 9 -6 10 -11 2 -15 -15 -9 -3
-28 12 -20 7 3 3 -2 -7 -10 -11 -9 -14 -16 -7 -16 7 0 10 -4 6 -9 -3 -5 0 -13
6 -17 7 -4 9 -3 5 4 -3 6 -2 13 3 16 11 7 9 -13 -3 -32 -5 -8 -1 -21 9 -32 9
-10 14 -24 9 -31 -4 -7 -3 -10 3 -6 6 4 15 -5 22 -19 9 -20 9 -24 -1 -18 -9 6
-9 3 1 -9 7 -9 18 -14 24 -10 6 4 8 0 4 -10 -4 -10 2 -22 16 -33 14 -10 16
-14 5 -11 -9 3 -19 0 -21 -7 -3 -7 3 -12 15 -12 13 1 22 -6 24 -17 1 -10 11
-25 21 -34 10 -8 13 -12 6 -9 -6 4 -15 2 -18 -4 -4 -6 -1 -9 7 -8 8 2 12 -5
10 -17 -2 -18 -2 -18 8 -2 6 9 16 17 23 17 7 0 6 -4 -3 -10 -13 -9 -12 -12 4
-25 16 -12 22 -12 29 -2 6 9 7 8 4 -3 -2 -8 -10 -14 -16 -12 -7 1 -10 -2 -6
-8 3 -5 13 -10 22 -10 9 0 13 -6 10 -14 -4 -10 -1 -13 9 -9 9 3 14 -1 14 -12
0 -12 5 -15 16 -11 12 5 15 2 10 -9 -4 -11 0 -15 12 -13 12 2 17 -3 16 -19 0
-16 3 -20 11 -13 6 5 17 5 25 0 8 -5 18 -6 24 -3 5 3 6 1 2 -5 -3 -6 -1 -14 4
-17 8 -5 5 -14 -6 -26 -17 -19 -17 -20 1 -13 11 5 16 4 12 -3 -4 -6 12 -9 42
-9 38 1 47 -2 48 -16 1 -10 -3 -18 -8 -18 -6 0 -7 4 -4 10 3 6 -1 7 -9 4 -24
-9 -19 -22 7 -19 37 4 38 5 31 17 -4 7 -3 8 5 4 9 -6 9 -11 1 -21 -8 -10 -7
-16 6 -23 19 -11 54 -4 54 10 0 5 4 6 10 3 13 -8 -12 -35 -25 -27 -5 3 -4 -2
4 -11 14 -18 26 -23 16 -8 -7 12 9 22 40 25 16 2 22 -1 18 -11 -3 -8 -2 -13 3
-12 5 1 11 0 14 -1 21 -8 40 -6 40 3 0 7 4 7 9 -2 5 -8 16 -11 25 -8 23 9 20
0 -5 -13 -14 -8 -24 -8 -33 -1 -8 7 -15 5 -23 -8 -9 -14 -8 -18 3 -18 7 0 10
5 7 10 -4 6 1 8 11 4 10 -4 20 -7 22 -7 2 0 4 -5 4 -11 0 -5 -5 -7 -12 -3 -7
4 -8 3 -4 -5 10 -15 29 -3 22 15 -3 8 -1 14 4 14 9 0 14 -14 11 -32 -2 -12 17
-9 24 3 5 6 12 4 21 -8 13 -17 14 -17 7 2 -6 18 -5 19 13 5 10 -8 22 -19 26
-25 4 -5 8 -6 8 -1 0 5 -11 19 -25 32 -14 13 -25 29 -25 36 0 10 2 10 9 -1 5
-7 11 -9 13 -5 3 5 3 3 2 -3 -2 -7 7 -18 19 -24 20 -11 21 -11 8 5 -12 15 -12
19 1 32 13 13 15 13 15 0 0 -8 -4 -13 -9 -10 -4 3 -8 1 -8 -5 0 -21 19 -20 34
1 9 12 19 18 23 14 4 -4 0 -12 -9 -17 -10 -6 -23 -20 -29 -32 -11 -21 -10 -21
17 3 16 14 26 21 22 16 -11 -14 31 -41 44 -28 6 6 6 12 -3 17 -8 5 -10 4 -5
-3 4 -7 3 -12 -2 -12 -15 0 -23 30 -13 47 7 14 10 13 15 -5 8 -24 21 -28 31
-12 5 8 11 7 21 -1 17 -14 19 2 2 21 -7 8 -4 7 7 -2 16 -13 24 -14 39 -6 14 8
21 8 24 0 2 -6 14 -8 28 -6 13 2 24 0 24 -5 0 -6 -9 -8 -20 -6 -11 2 -22 0
-25 -6 -4 -5 -12 -9 -18 -9 -8 0 -8 3 2 9 9 6 10 11 2 15 -6 4 -11 3 -11 -2 0
-9 -7 -11 -53 -14 -13 -1 -24 -7 -24 -14 0 -7 9 -11 19 -9 10 2 18 0 18 -6 0
-5 5 -9 11 -9 8 0 8 5 -1 15 -8 9 -9 15 -2 15 6 0 13 -4 16 -9 7 -10 46 -3 46
9 0 13 45 6 58 -10 10 -13 11 -12 5 5 -6 18 -5 19 12 5 10 -8 16 -10 12 -4 -8
13 16 26 29 16 5 -4 5 -3 1 3 -11 13 -30 13 -39 0 -5 -6 -8 -3 -8 7 0 9 5 20
10 23 5 3 10 1 10 -6 0 -7 3 -9 7 -6 3 4 17 0 31 -9 15 -10 21 -11 17 -3 -6 9
-3 11 8 6 12 -4 14 -2 10 10 -5 13 -3 14 15 4 12 -7 22 -17 22 -23 0 -6 3 -8
7 -5 3 4 -2 17 -13 28 -19 22 -19 22 5 9 15 -7 21 -8 17 -1 -4 6 -4 11 1 12 4
0 16 2 26 4 9 2 17 -2 17 -8 0 -8 4 -7 9 2 10 16 34 5 25 -12 -4 -8 -2 -7 7 1
12 11 12 14 0 22 -12 7 -13 11 -1 25 10 12 10 19 2 27 -7 7 -12 16 -12 21 0 5
10 -3 21 -18 18 -22 20 -29 8 -36 -9 -6 -10 -9 -2 -9 22 0 25 21 7 48 -17 26
-17 27 1 12 17 -13 18 -13 13 1 -3 9 -2 22 3 30 6 9 8 4 5 -18 -2 -18 0 -30 5
-28 4 3 12 -2 17 -11 8 -15 10 -14 17 2 16 37 15 47 -4 30 -15 -14 -17 -13
-18 7 0 12 1 16 4 9 3 -6 9 -9 15 -6 7 4 1 15 -13 26 -22 18 -20 18 12 -1 20
-11 39 -18 42 -14 4 3 7 1 7 -5 0 -7 -4 -12 -10 -12 -5 0 -10 -5 -10 -10 0 -6
7 -6 19 1 16 11 17 15 4 40 -8 16 -22 33 -31 39 -9 5 -12 10 -6 10 6 0 17 -7
24 -15 7 -8 17 -15 22 -15 6 0 4 8 -3 17 -12 14 -12 16 0 8 10 -6 13 -4 9 6
-4 10 1 15 13 16 10 1 19 -3 19 -8 0 -6 -5 -7 -12 -3 -7 4 -8 3 -4 -4 4 -7 1
-12 -6 -12 -11 0 -10 -2 0 -9 11 -6 10 -10 -4 -15 -12 -5 -14 -10 -7 -17 13
-13 36 -2 28 12 -6 8 8 13 28 10 4 -1 3 7 -2 18 -8 15 -7 20 5 25 12 5 15 2
10 -11 -6 -15 -4 -15 12 2 13 13 15 22 8 27 -6 4 -15 3 -20 -2 -14 -14 -23
-12 -29 3 -6 16 49 17 73 2 13 -8 13 -7 0 10 -14 17 -13 18 3 12 12 -5 16 -3
11 5 -5 7 -2 9 8 5 12 -4 15 0 14 17 -4 31 19 60 39 52 10 -3 14 -2 10 5 -4 5
-19 8 -35 5 -28 -4 -36 13 -15 31 4 4 5 3 1 -4 -3 -6 -2 -14 4 -18 5 -3 10 -1
10 5 0 11 31 10 40 -1 3 -4 11 -1 18 7 8 9 9 14 2 14 -6 0 -8 5 -5 10 3 6 1
10 -5 10 -6 0 -8 5 -5 10 5 8 11 8 20 0 9 -8 15 -8 20 0 4 6 3 9 -2 8 -4 -2
-8 2 -8 7 0 6 6 9 15 7 12 -2 13 -1 1 7 -11 7 -10 10 5 14 17 4 17 5 1 6 -10
0 -16 5 -12 10 3 5 1 12 -4 16 -6 3 -8 -4 -6 -15 3 -13 0 -18 -7 -14 -7 5 -8
2 -3 -6 6 -9 4 -11 -5 -5 -8 5 -11 4 -6 -3 3 -6 1 -14 -6 -18 -7 -4 -10 -4 -6
1 4 4 4 13 -1 19 -14 18 -22 48 -11 41 6 -3 10 -13 10 -22 0 -9 3 -13 8 -9 4
4 7 11 7 14 0 15 35 55 42 48 4 -4 1 -11 -7 -16 -8 -6 -10 -10 -4 -10 7 0 20
8 31 18 10 9 14 13 7 9 -7 -4 -15 -3 -19 3 -3 5 -1 10 4 10 6 0 11 7 11 15 0
7 8 19 18 24 14 9 15 10 1 11 -9 0 -21 -11 -27 -25 -12 -25 -32 -34 -32 -14 0
5 5 7 10 4 6 -3 10 1 10 10 0 9 -4 14 -8 11 -4 -2 -9 5 -9 16 -2 20 -1 20 12
2 8 -11 15 -14 15 -7 0 6 -7 19 -16 27 -8 9 -10 16 -4 16 6 0 13 -7 16 -15 4
-8 10 -15 15 -15 6 0 5 9 -1 21 -15 27 -21 61 -11 54 5 -2 15 2 22 11 10 13
10 19 0 37 -8 12 -10 19 -6 15 8 -7 63 62 56 71 -1 2 3 8 11 13 8 6 5 7 -12 2
-22 -6 -23 -5 -11 10 17 20 6 35 -12 16 -10 -10 -9 -11 3 -5 9 5 12 4 7 -1 -5
-5 -12 -9 -15 -9 -4 0 -14 -4 -22 -10 -13 -8 -13 -7 -1 8 11 14 11 17 0 17
-11 0 -11 2 1 10 8 5 15 15 15 22 0 8 11 13 28 12 15 -1 27 3 27 8 0 5 -9 7
-19 3 -14 -4 -23 0 -31 15 -6 11 -16 17 -22 14 -7 -4 -8 -3 -4 5 4 6 12 9 17
6 5 -4 9 2 9 12 0 11 5 24 12 31 14 14 20 45 7 36 -5 -3 -10 0 -10 5 -1 6 -2
15 -3 21 0 5 -9 18 -18 29 -23 28 -43 65 -29 57 6 -4 11 -2 11 3 0 11 -15 15
-35 11 -5 -1 -2 7 6 17 22 25 34 47 22 40 -5 -3 -20 1 -32 9 l-22 16 23 27
c12 14 17 21 9 14 -15 -13 -44 -6 -35 8 3 5 1 9 -5 9 -5 0 -8 11 -7 25 2 14
-4 30 -13 37 -14 11 -14 11 -3 -4 10 -12 10 -18 1 -24 -7 -4 -9 -3 -5 4 3 6 2
13 -2 16 -11 6 -9 36 3 56 5 10 1 9 -12 -3 -16 -14 -23 -15 -29 -6 -4 8 -3 10
4 5 7 -4 12 -1 12 9 0 10 -5 13 -12 9 -7 -5 -9 -2 -5 8 3 10 -3 24 -16 35
l-22 18 19 -22 c11 -13 14 -23 9 -23 -12 0 -28 30 -32 60 0 5 -8 6 -18 3 -11
-4 -14 -3 -9 5 4 7 2 12 -3 12 -6 0 -11 7 -11 16 0 8 -4 13 -9 10 -10 -7 -24
22 -16 34 3 5 -6 7 -19 6 -17 -2 -23 1 -19 11 4 9 -3 16 -16 20 -11 3 -18 9
-15 14 3 5 0 8 -8 7 -7 -2 -12 2 -11 9 2 7 -4 10 -12 7 -10 -4 -15 0 -15 11 0
15 -2 16 -17 4 -11 -10 -14 -10 -9 -1 4 8 1 12 -9 12 -10 0 -15 5 -12 14 4 9
-2 13 -16 12 -13 -1 -21 4 -19 12 1 8 -2 11 -8 7 -5 -3 -10 -1 -10 6 0 8 -5 7
-17 -2 -11 -10 -14 -10 -9 -1 4 7 1 12 -9 12 -9 0 -13 5 -10 10 9 14 -8 12
-24 -2 -11 -11 -13 -10 -8 4 3 9 0 19 -9 22 -10 4 -13 2 -8 -7 4 -6 -3 -3 -16
8 -13 11 -21 15 -17 10 3 -6 -4 -12 -16 -12 -17 -2 -18 0 -7 7 20 12 11 19
-34 22 -20 1 -40 6 -43 11 -2 4 -12 2 -21 -5 -11 -9 -14 -9 -9 -1 6 10 -36 12
-188 12 -107 0 -196 -4 -196 -7z m841 -242 c0 -5 -5 -10 -11 -10 -5 0 -7 5 -4
10 3 6 8 10 11 10 2 0 4 -4 4 -10z m-391 -237 c-27 -34 -54 -58 -61 -55 -5 1
-8 -2 -8 -8 0 -5 -6 -9 -12 -7 -7 1 -12 -3 -11 -10 2 -7 -7 -10 -25 -7 -14 3
-24 3 -21 -1 11 -10 48 -14 54 -6 2 5 16 7 30 6 14 -2 25 1 25 7 0 5 -10 7
-22 3 -22 -6 -22 -5 -3 7 23 14 85 19 85 6 0 -4 5 -8 12 -8 9 0 9 3 0 12 -18
18 -15 28 9 28 11 0 17 5 14 10 -3 6 -1 10 4 10 6 0 11 -5 11 -11 0 -5 5 -7
10 -4 6 4 8 10 5 15 -3 5 0 12 6 16 7 4 9 3 5 -4 -3 -6 -2 -13 3 -16 5 -3 11
1 15 9 3 8 11 15 18 14 10 0 10 -2 1 -6 -7 -2 -13 -9 -13 -14 0 -6 5 -7 10 -4
6 3 10 1 10 -5 0 -6 4 -9 9 -5 16 10 23 -15 9 -33 -12 -15 -11 -16 5 -3 15 12
21 9 18 -11 0 -4 6 -5 15 -1 11 4 12 8 4 13 -7 4 3 9 23 12 20 2 33 0 31 -4
-3 -5 2 -11 10 -14 9 -3 13 -10 10 -15 -8 -14 20 -11 35 4 10 8 12 8 7 0 -3
-6 4 -19 16 -28 13 -8 22 -18 20 -20 -1 -3 5 -16 14 -30 9 -13 13 -30 9 -37
-4 -7 1 -4 9 6 18 22 21 14 6 -14 -9 -16 -8 -18 6 -13 12 4 15 3 10 -5 -4 -7
-2 -12 5 -12 8 0 7 -5 -2 -16 -12 -15 -11 -16 11 -9 22 7 23 6 11 -9 -9 -11
-10 -16 -2 -16 7 0 9 -5 6 -10 -4 -6 -1 -18 7 -27 11 -15 11 -16 -6 -9 -20 7
-20 7 0 -15 10 -12 14 -20 9 -16 -12 6 -13 -32 -1 -51 4 -7 2 -12 -6 -12 -9 0
-9 -3 2 -10 13 -9 13 -10 0 -10 -12 0 -13 -2 -1 -9 11 -7 10 -11 -5 -20 -13
-7 -14 -10 -5 -11 8 0 11 -3 8 -7 -4 -3 -2 -12 5 -20 8 -11 7 -12 -6 -7 -12 4
-16 0 -16 -15 0 -12 -4 -21 -9 -21 -6 0 -8 -9 -6 -20 2 -11 -1 -19 -8 -17 -7
1 -11 -6 -11 -15 1 -10 -4 -18 -11 -18 -7 0 -18 -14 -25 -31 -7 -17 -18 -28
-25 -25 -7 2 -12 -3 -11 -12 0 -9 -6 -17 -14 -17 -8 -1 -14 -7 -12 -14 2 -8
-3 -11 -13 -8 -10 4 -15 1 -15 -11 0 -15 -2 -15 -11 -2 -9 12 -10 10 -5 -9 3
-17 2 -21 -6 -13 -8 8 -15 7 -25 -6 -8 -9 -12 -12 -9 -5 4 6 2 14 -4 18 -10 6
-14 -6 -11 -35 2 -13 0 -13 -8 -1 -7 10 -13 12 -23 5 -7 -6 -20 -10 -28 -9 -8
0 -18 -4 -22 -10 -5 -6 -8 -5 -8 4 0 11 -3 11 -17 0 -11 -9 -14 -10 -9 -2 5 9
2 11 -8 7 -9 -3 -13 -11 -10 -18 3 -6 -2 -2 -10 8 -14 18 -21 15 -17 -7 1 -4
-10 0 -24 9 -14 9 -25 12 -25 6 0 -6 6 -13 13 -15 8 -4 9 -6 0 -6 -6 -1 -18 5
-25 12 -7 8 -26 13 -41 13 -15 -1 -27 2 -27 7 0 4 -4 5 -10 2 -5 -3 -10 -1
-10 6 0 8 -5 7 -17 -2 -11 -10 -14 -10 -9 -1 4 7 2 12 -4 12 -6 0 -8 5 -4 13
6 9 4 9 -8 -1 -13 -10 -18 -10 -24 -1 -4 7 -3 9 3 6 5 -3 10 0 10 7 0 7 -11
12 -28 11 -20 -1 -26 2 -21 13 3 9 1 13 -5 9 -6 -4 -13 2 -16 12 -2 11 -15 24
-28 30 l-24 12 23 -17 c12 -9 22 -20 22 -25 0 -5 -11 1 -25 13 -20 18 -23 24
-12 37 7 9 8 12 1 8 -7 -4 -12 3 -13 18 -3 60 -3 59 -24 34 l-20 -24 8 24 c4
15 3 21 -3 17 -5 -3 -16 2 -23 11 -8 9 -9 14 -4 11 6 -4 19 1 30 9 20 15 20
15 -2 8 -14 -4 -23 -2 -23 4 0 10 12 15 31 13 3 0 5 10 5 23 0 18 -5 24 -18
22 -10 -2 -21 -7 -25 -11 -5 -4 -3 -7 2 -6 6 1 17 2 25 1 11 -1 11 -4 2 -13
-9 -9 -15 -9 -24 0 -13 13 -21 45 -10 38 4 -2 16 0 27 5 17 6 17 8 3 8 -16 1
-23 12 -19 34 0 4 -3 7 -8 7 -15 0 -6 32 12 45 19 14 12 26 -9 18 -8 -3 -14 0
-14 6 0 6 6 10 13 9 6 -2 11 3 9 10 -1 8 2 11 7 8 5 -4 12 -2 16 3 3 6 12 8
19 5 8 -3 16 -1 20 4 3 5 -8 8 -25 7 l-29 -2 21 24 c16 16 18 23 8 23 -11 1
-10 3 2 10 10 6 15 18 12 34 -5 26 11 44 23 25 4 -8 3 -9 -4 -5 -8 5 -12 -1
-12 -15 0 -21 1 -22 20 -4 16 15 18 21 7 33 -8 11 -8 14 0 9 7 -4 18 2 27 14
13 20 43 18 31 -2 -4 -5 -1 -17 5 -26 9 -16 10 -15 5 5 -4 12 -3 22 2 21 4 -1
11 0 16 1 4 1 12 3 18 4 17 2 30 44 17 52 -7 5 -8 2 -3 -6 5 -8 4 -11 -3 -6
-6 3 -14 1 -18 -5 -4 -8 -3 -9 4 -5 7 4 12 1 12 -9 0 -9 -4 -14 -9 -10 -5 3
-13 0 -16 -6 -5 -7 -12 -3 -22 10 -16 24 -8 50 10 32 8 -8 16 -6 29 6 17 15
17 17 0 30 -13 11 -10 11 14 -1 31 -15 54 -7 54 18 0 6 -5 5 -12 -2 -7 -7 -17
-12 -22 -12 -10 1 23 24 34 25 3 0 11 4 19 9 9 6 12 5 7 -2 -3 -6 -2 -13 4
-17 5 -3 10 -1 10 5 0 6 12 22 28 35 32 29 40 32 21 8z m25 -8 c-5 -11 -2 -13
12 -8 16 6 16 5 -2 -13 -22 -23 -38 -10 -23 18 12 22 21 24 13 3z m181 -16
c17 -12 22 -19 13 -16 -9 3 -19 2 -22 -4 -2 -5 -3 -4 -2 3 2 7 -6 18 -18 25
-12 7 -16 12 -11 13 6 0 24 -10 40 -21z m-215 -19 c0 -5 -5 -10 -11 -10 -5 0
-7 5 -4 10 3 6 8 10 11 10 2 0 4 -4 4 -10z m-203 -35 c0 -8 -4 -15 -9 -15 -10
0 -11 14 -1 23 9 10 10 9 10 -8z m43 -5 c0 -5 -2 -10 -4 -10 -3 0 -8 5 -11 10
-3 6 -1 10 4 10 6 0 11 -4 11 -10z m-78 -47 c-6 -3 -10 -8 -8 -12 3 -4 -1 -8
-9 -8 -13 0 -12 4 2 19 9 10 19 15 22 12 3 -4 0 -9 -7 -11z m920 -131 c7 -7 8
-12 4 -12 -5 0 -1 -11 8 -25 15 -23 15 -26 1 -31 -9 -4 -19 -4 -22 0 -4 3 -1
6 5 6 6 0 9 7 6 15 -4 8 -11 12 -17 8 -6 -4 -7 -1 -3 6 5 7 1 20 -9 31 -15 16
-15 18 -1 16 9 -1 22 -8 28 -14z m-1002 -2 c0 -5 -2 -10 -4 -10 -3 0 -8 5 -11
10 -3 6 -1 10 4 10 6 0 11 -4 11 -10z m-20 -20 c0 -5 -5 -10 -11 -10 -5 0 -7
5 -4 10 3 6 8 10 11 10 2 0 4 -4 4 -10z m1011 -143 c-10 -9 -11 -8 -5 6 3 10
9 15 12 12 3 -3 0 -11 -7 -18z m-1030 -14 c13 -16 12 -17 -3 -4 -10 7 -18 15
-18 17 0 8 8 3 21 -13z m1067 -71 c9 -6 4 -16 -18 -37 -16 -16 -30 -23 -30
-17 0 7 4 12 8 12 5 0 9 7 9 15 0 10 -6 14 -16 10 -11 -3 -10 0 3 10 23 17 26
18 44 7z m-995 -102 c3 -11 2 -22 -2 -24 -4 -3 -8 6 -9 20 -2 29 4 31 11 4z
m952 -11 c-4 -5 -12 -9 -18 -8 -9 0 -8 2 1 6 6 2 9 10 6 15 -4 7 -2 8 5 4 6
-4 9 -12 6 -17z m-1741 -65 c3 -8 2 -12 -4 -9 -6 3 -10 10 -10 16 0 14 7 11
14 -7z m1678 -101 c-6 -2 -10 -8 -8 -12 3 -4 -1 -8 -9 -8 -11 0 -12 4 -4 14 6
7 17 13 23 12 7 0 6 -2 -2 -6z m-37 -93 c-3 -5 -1 -10 6 -10 7 0 9 -3 6 -6 -3
-4 -2 -15 3 -25 9 -15 7 -17 -11 -14 -26 5 -35 13 -25 22 4 4 11 1 16 -7 6 -8
10 -10 10 -5 0 6 -4 17 -9 25 -9 13 -6 30 5 30 3 0 2 -4 -1 -10z m-40 -28 c-3
-3 -11 0 -18 7 -9 10 -8 11 6 5 10 -3 15 -9 12 -12z m-27 -64 c-2 -6 -12 -12
-21 -14 -9 -1 -15 2 -11 7 3 5 10 7 15 4 5 -4 9 -1 9 4 0 6 3 11 6 11 3 0 4
-5 2 -12z m25 -19 c-6 -6 -9 -18 -6 -25 3 -8 0 -14 -6 -14 -22 0 -26 -2 -34
-15 -10 -18 -37 -8 -37 13 0 13 3 12 16 -4 14 -17 15 -18 10 -1 -9 28 2 39 26
26 16 -8 19 -8 13 1 -4 7 -1 16 6 21 19 12 25 11 12 -2z m-103 -49 c0 -5 -5
-10 -11 -10 -5 0 -7 5 -4 10 3 6 8 10 11 10 2 0 4 -4 4 -10z m0 -80 c0 -5 -5
-10 -11 -10 -5 0 -7 5 -4 10 3 6 8 10 11 10 2 0 4 -4 4 -10z m-89 -20 c10 -6
19 -16 19 -23 0 -8 -3 -9 -8 -1 -4 6 -16 16 -27 22 -25 14 -11 16 16 2z
m-1032 -16 c4 3 8 -1 8 -8 0 -8 -7 -13 -16 -11 -9 1 -15 5 -13 8 1 4 2 13 3
20 0 9 2 9 6 -1 2 -6 8 -10 12 -8z m125 -75 c-14 -15 -44 -16 -44 -2 0 3 7 3
15 0 8 -4 17 -2 20 3 3 4 -1 10 -7 13 -7 3 -3 4 9 4 20 -1 21 -3 7 -18z m791
-19 c-8 -9 -22 -17 -30 -17 -8 0 -13 3 -10 5 3 3 -1 12 -8 21 -11 14 -10 15 7
1 18 -14 19 -13 13 3 -4 11 -3 16 3 12 6 -3 10 -1 10 6 0 8 4 8 15 -1 14 -12
14 -15 0 -30z m-96 -14 c-3 -3 -11 5 -18 17 -13 21 -12 21 5 5 10 -10 16 -20
13 -22z m41 5 c0 -5 -8 -12 -17 -16 -14 -5 -15 -4 -6 6 10 10 9 15 -5 26 -15
13 -15 13 6 3 12 -6 22 -15 22 -19z m-183 -23 c2 -17 0 -19 -7 -8 -5 8 -6 18
-4 22 8 12 10 10 11 -14z m-26 -5 c12 -16 12 -17 -2 -6 -9 7 -20 9 -24 5 -5
-4 -5 -1 -1 6 9 16 11 15 27 -5z m109 6 c0 -5 5 -7 10 -4 6 3 10 1 10 -4 0
-13 -3 -13 -24 -5 -18 7 -22 24 -6 24 6 0 10 -5 10 -11z m-428 -16 c-10 -4 -9
-8 3 -17 15 -10 14 -12 -3 -13 -20 -2 -23 11 -8 35 4 7 11 10 15 6 3 -4 0 -9
-7 -11z m188 -3 c0 -5 -2 -10 -4 -10 -3 0 -8 5 -11 10 -3 6 -1 10 4 10 6 0 11
-4 11 -10z"/>
<path d="M1233 1442 c-3 -9 -8 -20 -10 -24 -2 -4 3 -5 11 -2 9 3 12 12 9 22
-5 15 -3 14 15 -2 12 -10 19 -23 16 -27 -12 -20 5 -7 19 14 10 16 12 24 4 25
-7 0 -22 3 -35 6 -16 3 -25 0 -29 -12z m52 -10 c-3 -3 -11 0 -18 7 -9 10 -8
11 6 5 10 -3 15 -9 12 -12z"/>
<path d="M1377 1403 c4 -11 8 -12 13 -3 6 9 9 9 13 1 4 -8 5 -8 3 0 -1 7 -9
13 -18 15 -11 1 -15 -3 -11 -13z"/>
<path d="M1130 1399 c0 -5 5 -7 10 -4 6 3 10 8 10 11 0 2 -4 4 -10 4 -5 0 -10
-5 -10 -11z"/>
<path d="M1445 1381 c-4 -7 -2 -18 4 -24 9 -9 10 -7 5 7 -5 13 -4 17 4 12 7
-4 12 -13 12 -21 0 -8 5 -17 10 -20 16 -10 11 11 -8 36 -14 16 -21 19 -27 10z"/>
<path d="M940 1371 c0 -5 5 -13 10 -16 6 -3 10 -2 10 4 0 5 -4 13 -10 16 -5 3
-10 2 -10 -4z"/>
<path d="M910 1322 c-8 -10 -16 -24 -18 -31 -1 -7 -14 -22 -27 -34 l-26 -22
26 -12 c14 -6 25 -7 25 -2 0 5 -4 9 -8 9 -17 0 -8 30 10 36 10 3 16 10 13 15
-4 5 2 9 12 10 10 0 13 3 6 6 -9 3 -10 10 -3 24 13 24 9 24 -10 1z"/>
<path d="M1500 1321 c0 -6 4 -13 10 -16 6 -3 7 1 4 9 -7 18 -14 21 -14 7z"/>
<path d="M837 1213 c-4 -3 -7 -11 -7 -17 0 -6 5 -5 12 2 6 6 9 14 7 17 -3 3
-9 2 -12 -2z"/>
<path d="M860 1206 c0 -2 8 -10 18 -17 15 -13 16 -12 3 4 -13 16 -21 21 -21
13z"/>
<path d="M810 1155 c-9 -11 -6 -16 11 -25 17 -9 20 -9 14 0 -4 7 -2 16 5 20 9
5 8 9 -3 13 -9 3 -21 0 -27 -8z"/>
<path d="M794 1105 c-19 -14 -19 -14 1 -15 11 0 16 -3 10 -8 -12 -8 -14 -27
-4 -36 3 -3 6 0 7 7 0 6 3 24 5 40 5 32 6 31 -19 12z"/>
<path d="M830 1100 c0 -5 5 -10 11 -10 5 0 7 5 4 10 -3 6 -8 10 -11 10 -2 0
-4 -4 -4 -10z"/>
<path d="M820 1046 c0 -2 8 -10 18 -17 15 -13 16 -12 3 4 -13 16 -21 21 -21
13z"/>
<path d="M806 922 c-3 -5 1 -9 9 -9 8 0 15 4 15 9 0 4 -4 8 -9 8 -6 0 -12 -4
-15 -8z"/>
<path d="M1813 955 c0 -8 4 -12 9 -9 4 3 8 9 8 15 0 5 -4 9 -8 9 -5 0 -9 -7
-9 -15z"/>
<path d="M1326 234 c-5 -14 -4 -15 9 -4 17 14 19 20 6 20 -5 0 -12 -7 -15 -16z"/>
<path d="M1726 1481 c-3 -4 1 -17 9 -27 8 -10 15 -14 15 -7 0 6 -5 15 -10 18
-6 4 -8 11 -5 16 4 5 4 9 1 9 -3 0 -7 -4 -10 -9z"/>
<path d="M1745 1400 c-3 -5 -5 -10 -3 -11 29 -7 36 -5 31 7 -6 16 -19 18 -28
4z"/>
<path d="M1778 1323 c6 -2 18 -2 25 0 6 3 1 5 -13 5 -14 0 -19 -2 -12 -5z"/>
<path d="M1797 1272 c3 -7 9 -10 12 -5 3 4 10 11 15 15 4 4 -1 6 -12 5 -12 -1
-18 -6 -15 -15z"/>
<path d="M1825 1101 c-6 -11 9 -23 19 -14 9 9 7 23 -3 23 -6 0 -12 -4 -16 -9z"/>
<path d="M1823 1044 c4 -4 1 -14 -6 -23 -11 -14 -10 -15 8 -1 11 8 21 15 23
16 2 1 -5 5 -15 8 -9 4 -14 4 -10 0z"/>
<path d="M1821 897 c-8 -11 -6 -18 9 -32 11 -10 20 -13 20 -7 0 7 -5 12 -12
12 -9 0 -9 3 0 12 7 7 12 16 12 20 0 13 -16 9 -29 -5z"/>
<path d="M1795 830 c-10 -11 -13 -20 -7 -20 7 0 11 -5 10 -11 -2 -6 4 -13 13
-14 9 -2 16 3 16 11 0 7 -4 11 -8 9 -4 -3 -10 2 -13 11 -5 13 -1 15 20 10 24
-6 25 -5 11 9 -20 19 -20 19 -42 -5z"/>
<path d="M1676 482 c-3 -5 1 -9 9 -9 8 0 15 4 15 9 0 4 -4 8 -9 8 -6 0 -12 -4
-15 -8z"/>
<path d="M305 389 c-4 -6 -5 -12 -2 -15 2 -3 7 2 10 11 7 17 1 20 -8 4z"/>
<path d="M357 351 c23 -22 39 -28 28 -11 -3 5 -16 15 -28 21 l-22 11 22 -21z"/>
<path d="M330 340 c0 -5 5 -10 11 -10 5 0 7 5 4 10 -3 6 -8 10 -11 10 -2 0 -4
-4 -4 -10z"/>
<path d="M595 209 c-4 -6 -1 -17 7 -25 12 -12 14 -11 15 6 2 23 -13 35 -22 19z"/>
<path d="M635 189 c-10 -15 3 -25 16 -12 7 7 7 13 1 17 -6 3 -14 1 -17 -5z"/>
<path d="M1226 138 c3 -5 10 -6 15 -3 13 9 11 12 -6 12 -8 0 -12 -4 -9 -9z"/>
<path d="M866 122 c-3 -5 1 -9 9 -9 8 0 15 4 15 9 0 4 -4 8 -9 8 -6 0 -12 -4
-15 -8z"/>
<path d="M1070 126 c0 -2 7 -6 15 -10 8 -3 15 -1 15 4 0 6 -7 10 -15 10 -8 0
-15 -2 -15 -4z"/>
<path d="M1166 118 c3 -5 10 -6 15 -3 13 9 11 12 -6 12 -8 0 -12 -4 -9 -9z"/>
</g>
</svg>
